<svg aria-roledescription="er" role="graphics-document document" viewBox="0 0 487.5331115722656 398" style="max-width: 487.533px; background-color: white;" xmlns:xlink="http://www.w3.org/1999/xlink" xmlns="http://www.w3.org/2000/svg" width="100%" id="mermaid-0"><style>#mermaid-0{font-family:"trebuchet ms",verdana,arial,sans-serif;font-size:16px;fill:#000000;}#mermaid-0 .error-icon{fill:#552222;}#mermaid-0 .error-text{fill:#552222;stroke:#552222;}#mermaid-0 .edge-thickness-normal{stroke-width:2px;}#mermaid-0 .edge-thickness-thick{stroke-width:3.5px;}#mermaid-0 .edge-pattern-solid{stroke-dasharray:0;}#mermaid-0 .edge-pattern-dashed{stroke-dasharray:3;}#mermaid-0 .edge-pattern-dotted{stroke-dasharray:2;}#mermaid-0 .marker{fill:#000000;stroke:#000000;}#mermaid-0 .marker.cross{stroke:#000000;}#mermaid-0 svg{font-family:"trebuchet ms",verdana,arial,sans-serif;font-size:16px;}#mermaid-0 .entityBox{fill:#cde498;stroke:#13540c;}#mermaid-0 .attributeBoxOdd{fill:#ffffff;stroke:#13540c;}#mermaid-0 .attributeBoxEven{fill:#f2f2f2;stroke:#13540c;}#mermaid-0 .relationshipLabelBox{fill:hsl(78.1578947368, 58.4615384615%, 84.5098039216%);opacity:0.7;background-color:hsl(78.1578947368, 58.4615384615%, 84.5098039216%);}#mermaid-0 .relationshipLabelBox rect{opacity:0.5;}#mermaid-0 .relationshipLine{stroke:#000000;}#mermaid-0 .entityTitleText{text-anchor:middle;font-size:18px;fill:#000000;}#mermaid-0 :root{--mermaid-font-family:"trebuchet ms",verdana,arial,sans-serif;}</style><g/><defs><marker orient="auto" markerHeight="18" markerWidth="18" refY="9" refX="0" id="ONLY_ONE_START"><path d="M9,0 L9,18 M15,0 L15,18" fill="none" stroke="gray"/></marker></defs><defs><marker orient="auto" markerHeight="18" markerWidth="18" refY="9" refX="18" id="ONLY_ONE_END"><path d="M3,0 L3,18 M9,0 L9,18" fill="none" stroke="gray"/></marker></defs><defs><marker orient="auto" markerHeight="18" markerWidth="30" refY="9" refX="0" id="ZERO_OR_ONE_START"><circle r="6" cy="9" cx="21" fill="white" stroke="gray"/><path d="M9,0 L9,18" fill="none" stroke="gray"/></marker></defs><defs><marker orient="auto" markerHeight="18" markerWidth="30" refY="9" refX="30" id="ZERO_OR_ONE_END"><circle r="6" cy="9" cx="9" fill="white" stroke="gray"/><path d="M21,0 L21,18" fill="none" stroke="gray"/></marker></defs><defs><marker orient="auto" markerHeight="36" markerWidth="45" refY="18" refX="18" id="ONE_OR_MORE_START"><path d="M0,18 Q 18,0 36,18 Q 18,36 0,18 M42,9 L42,27" fill="none" stroke="gray"/></marker></defs><defs><marker orient="auto" markerHeight="36" markerWidth="45" refY="18" refX="27" id="ONE_OR_MORE_END"><path d="M3,9 L3,27 M9,18 Q27,0 45,18 Q27,36 9,18" fill="none" stroke="gray"/></marker></defs><defs><marker orient="auto" markerHeight="36" markerWidth="57" refY="18" refX="18" id="ZERO_OR_MORE_START"><circle r="6" cy="18" cx="48" fill="white" stroke="gray"/><path d="M0,18 Q18,0 36,18 Q18,36 0,18" fill="none" stroke="gray"/></marker></defs><defs><marker orient="auto" markerHeight="36" markerWidth="57" refY="18" refX="39" id="ZERO_OR_MORE_END"><circle r="6" cy="18" cx="9" fill="white" stroke="gray"/><path d="M21,18 Q39,0 57,18 Q39,36 21,18" fill="none" stroke="gray"/></marker></defs><path style="stroke: gray; fill: none;" marker-start="url(#ZERO_OR_MORE_START)" marker-end="url(#ONLY_ONE_END)" d="M79.015625,159.5L79.015625,176.58333333333334C79.015625,193.66666666666666,79.015625,227.83333333333334,92.75892599327976,253.25C106.5022269865595,278.6666666666667,133.98882897311904,295.3333333333333,147.7321299663988,303.6666666666667L161.47543095967856,312" class="er relationshipLine"/><path style="stroke: gray; fill: none;" marker-start="url(#ZERO_OR_MORE_START)" marker-end="url(#ONLY_ONE_END)" d="M352.7821807861328,212L352.7821807861328,220.33333333333334C352.7821807861328,228.66666666666666,352.7821807861328,245.33333333333334,339.03887979285304,262C325.2955787995733,278.6666666666667,297.80897681301377,295.3333333333333,284.06567581973405,303.6666666666667L270.3223748264543,312" class="er relationshipLine"/><g transform="translate(150.05741119384766,312 )" id="entity-diaries-ccd869e5-dc2a-5505-bebd-421a5156e9f6"><rect height="66" width="131.6829833984375" y="0" x="0" class="er entityBox"/><text style="dominant-baseline: middle; text-anchor: middle; font-size: 12px;" transform="translate(65.84149169921875,12)" y="0" x="0" id="text-entity-diaries-ccd869e5-dc2a-5505-bebd-421a5156e9f6" class="er entityLabel">diaries</text><rect height="21" width="54.113128662109375" y="24" x="0" class="er attributeBoxOdd"/><text style="dominant-baseline: middle; font-size: 10.2px;" transform="translate(5,34.5)" y="0" x="0" id="text-entity-diaries-ccd869e5-dc2a-5505-bebd-421a5156e9f6-attr-1-type" class="er entityLabel">String</text><rect height="21" width="53.774871826171875" y="24" x="54.113128662109375" class="er attributeBoxOdd"/><text style="dominant-baseline: middle; font-size: 10.2px;" transform="translate(59.113128662109375,34.5)" y="0" x="0" id="text-entity-diaries-ccd869e5-dc2a-5505-bebd-421a5156e9f6-attr-1-name" class="er entityLabel">id</text><rect height="21" width="23.79498291015625" y="24" x="107.88800048828125" class="er attributeBoxOdd"/><text style="dominant-baseline: middle; font-size: 10.2px;" transform="translate(112.88800048828125,34.5)" y="0" x="0" id="text-entity-diaries-ccd869e5-dc2a-5505-bebd-421a5156e9f6-attr-1-key" class="er entityLabel">PK</text><rect height="21" width="54.113128662109375" y="45" x="0" class="er attributeBoxEven"/><text style="dominant-baseline: middle; font-size: 10.2px;" transform="translate(5,55.5)" y="0" x="0" id="text-entity-diaries-ccd869e5-dc2a-5505-bebd-421a5156e9f6-attr-2-type" class="er entityLabel">DateTime</text><rect height="21" width="53.774871826171875" y="45" x="54.113128662109375" class="er attributeBoxEven"/><text style="dominant-baseline: middle; font-size: 10.2px;" transform="translate(59.113128662109375,55.5)" y="0" x="0" id="text-entity-diaries-ccd869e5-dc2a-5505-bebd-421a5156e9f6-attr-2-name" class="er entityLabel">createdAt</text><rect height="21" width="23.79498291015625" y="45" x="107.88800048828125" class="er attributeBoxEven"/><text style="dominant-baseline: middle; font-size: 10.2px;" transform="translate(112.88800048828125,55.5)" y="0" x="0" id="text-entity-diaries-ccd869e5-dc2a-5505-bebd-421a5156e9f6-attr-2-key" class="er entityLabel"/></g><g transform="translate(20,72.5 )" id="entity-familymembers-2145bc2c-9ea9-59bd-9de1-762132f365d1"><rect height="87" width="118.03125" y="0" x="0" class="er entityBox"/><text style="dominant-baseline: middle; text-anchor: middle; font-size: 12px;" transform="translate(59.015625,12)" y="0" x="0" id="text-entity-familymembers-2145bc2c-9ea9-59bd-9de1-762132f365d1" class="er entityLabel">family_members</text><rect height="21" width="44.104166666666664" y="24" x="0" class="er attributeBoxOdd"/><text style="dominant-baseline: middle; font-size: 10.2px;" transform="translate(5,34.5)" y="0" x="0" id="text-entity-familymembers-2145bc2c-9ea9-59bd-9de1-762132f365d1-attr-1-type" class="er entityLabel">String</text><rect height="21" width="42.97498575846354" y="24" x="44.104166666666664" class="er attributeBoxOdd"/><text style="dominant-baseline: middle; font-size: 10.2px;" transform="translate(49.104166666666664,34.5)" y="0" x="0" id="text-entity-familymembers-2145bc2c-9ea9-59bd-9de1-762132f365d1-attr-1-name" class="er entityLabel">id</text><rect height="21" width="30.952097574869793" y="24" x="87.0791524251302" class="er attributeBoxOdd"/><text style="dominant-baseline: middle; font-size: 10.2px;" transform="translate(92.0791524251302,34.5)" y="0" x="0" id="text-entity-familymembers-2145bc2c-9ea9-59bd-9de1-762132f365d1-attr-1-key" class="er entityLabel">PK</text><rect height="21" width="44.104166666666664" y="45" x="0" class="er attributeBoxEven"/><text style="dominant-baseline: middle; font-size: 10.2px;" transform="translate(5,55.5)" y="0" x="0" id="text-entity-familymembers-2145bc2c-9ea9-59bd-9de1-762132f365d1-attr-2-type" class="er entityLabel">String</text><rect height="21" width="42.97498575846354" y="45" x="44.104166666666664" class="er attributeBoxEven"/><text style="dominant-baseline: middle; font-size: 10.2px;" transform="translate(49.104166666666664,55.5)" y="0" x="0" id="text-entity-familymembers-2145bc2c-9ea9-59bd-9de1-762132f365d1-attr-2-name" class="er entityLabel">name</text><rect height="21" width="30.952097574869793" y="45" x="87.0791524251302" class="er attributeBoxEven"/><text style="dominant-baseline: middle; font-size: 10.2px;" transform="translate(92.0791524251302,55.5)" y="0" x="0" id="text-entity-familymembers-2145bc2c-9ea9-59bd-9de1-762132f365d1-attr-2-key" class="er entityLabel"/><rect height="21" width="44.104166666666664" y="66" x="0" class="er attributeBoxOdd"/><text style="dominant-baseline: middle; font-size: 10.2px;" transform="translate(5,76.5)" y="0" x="0" id="text-entity-familymembers-2145bc2c-9ea9-59bd-9de1-762132f365d1-attr-3-type" class="er entityLabel">String</text><rect height="21" width="42.97498575846354" y="66" x="44.104166666666664" class="er attributeBoxOdd"/><text style="dominant-baseline: middle; font-size: 10.2px;" transform="translate(49.104166666666664,76.5)" y="0" x="0" id="text-entity-familymembers-2145bc2c-9ea9-59bd-9de1-762132f365d1-attr-3-name" class="er entityLabel">email</text><rect height="21" width="30.952097574869793" y="66" x="87.0791524251302" class="er attributeBoxOdd"/><text style="dominant-baseline: middle; font-size: 10.2px;" transform="translate(92.0791524251302,76.5)" y="0" x="0" id="text-entity-familymembers-2145bc2c-9ea9-59bd-9de1-762132f365d1-attr-3-key" class="er entityLabel"/></g><g transform="translate(238.03125,20 )" id="entity-pets-c8ddf567-7858-5c2f-8d5c-09924015b056"><rect height="192" width="229.50186157226562" y="0" x="0" class="er entityBox"/><text style="dominant-baseline: middle; text-anchor: middle; font-size: 12px;" transform="translate(114.75093078613281,12)" y="0" x="0" id="text-entity-pets-c8ddf567-7858-5c2f-8d5c-09924015b056" class="er entityLabel">pets</text><rect height="21" width="54.113128662109375" y="24" x="0" class="er attributeBoxOdd"/><text style="dominant-baseline: middle; font-size: 10.2px;" transform="translate(5,34.5)" y="0" x="0" id="text-entity-pets-c8ddf567-7858-5c2f-8d5c-09924015b056-attr-1-type" class="er entityLabel">String</text><rect height="21" width="151.59375" y="24" x="54.113128662109375" class="er attributeBoxOdd"/><text style="dominant-baseline: middle; font-size: 10.2px;" transform="translate(59.113128662109375,34.5)" y="0" x="0" id="text-entity-pets-c8ddf567-7858-5c2f-8d5c-09924015b056-attr-1-name" class="er entityLabel">id</text><rect height="21" width="23.79498291015625" y="24" x="205.70687866210938" class="er attributeBoxOdd"/><text style="dominant-baseline: middle; font-size: 10.2px;" transform="translate(210.70687866210938,34.5)" y="0" x="0" id="text-entity-pets-c8ddf567-7858-5c2f-8d5c-09924015b056-attr-1-key" class="er entityLabel">PK</text><rect height="21" width="54.113128662109375" y="45" x="0" class="er attributeBoxEven"/><text style="dominant-baseline: middle; font-size: 10.2px;" transform="translate(5,55.5)" y="0" x="0" id="text-entity-pets-c8ddf567-7858-5c2f-8d5c-09924015b056-attr-2-type" class="er entityLabel">String</text><rect height="21" width="151.59375" y="45" x="54.113128662109375" class="er attributeBoxEven"/><text style="dominant-baseline: middle; font-size: 10.2px;" transform="translate(59.113128662109375,55.5)" y="0" x="0" id="text-entity-pets-c8ddf567-7858-5c2f-8d5c-09924015b056-attr-2-name" class="er entityLabel">name</text><rect height="21" width="23.79498291015625" y="45" x="205.70687866210938" class="er attributeBoxEven"/><text style="dominant-baseline: middle; font-size: 10.2px;" transform="translate(210.70687866210938,55.5)" y="0" x="0" id="text-entity-pets-c8ddf567-7858-5c2f-8d5c-09924015b056-attr-2-key" class="er entityLabel"/><rect height="21" width="54.113128662109375" y="66" x="0" class="er attributeBoxOdd"/><text style="dominant-baseline: middle; font-size: 10.2px;" transform="translate(5,76.5)" y="0" x="0" id="text-entity-pets-c8ddf567-7858-5c2f-8d5c-09924015b056-attr-3-type" class="er entityLabel">String</text><rect height="21" width="151.59375" y="66" x="54.113128662109375" class="er attributeBoxOdd"/><text style="dominant-baseline: middle; font-size: 10.2px;" transform="translate(59.113128662109375,76.5)" y="0" x="0" id="text-entity-pets-c8ddf567-7858-5c2f-8d5c-09924015b056-attr-3-name" class="er entityLabel">kind</text><rect height="21" width="23.79498291015625" y="66" x="205.70687866210938" class="er attributeBoxOdd"/><text style="dominant-baseline: middle; font-size: 10.2px;" transform="translate(210.70687866210938,76.5)" y="0" x="0" id="text-entity-pets-c8ddf567-7858-5c2f-8d5c-09924015b056-attr-3-key" class="er entityLabel"/><rect height="21" width="54.113128662109375" y="87" x="0" class="er attributeBoxEven"/><text style="dominant-baseline: middle; font-size: 10.2px;" transform="translate(5,97.5)" y="0" x="0" id="text-entity-pets-c8ddf567-7858-5c2f-8d5c-09924015b056-attr-4-type" class="er entityLabel">DateTime</text><rect height="21" width="151.59375" y="87" x="54.113128662109375" class="er attributeBoxEven"/><text style="dominant-baseline: middle; font-size: 10.2px;" transform="translate(59.113128662109375,97.5)" y="0" x="0" id="text-entity-pets-c8ddf567-7858-5c2f-8d5c-09924015b056-attr-4-name" class="er entityLabel">birthDate</text><rect height="21" width="23.79498291015625" y="87" x="205.70687866210938" class="er attributeBoxEven"/><text style="dominant-baseline: middle; font-size: 10.2px;" transform="translate(210.70687866210938,97.5)" y="0" x="0" id="text-entity-pets-c8ddf567-7858-5c2f-8d5c-09924015b056-attr-4-key" class="er entityLabel"/><rect height="21" width="54.113128662109375" y="108" x="0" class="er attributeBoxOdd"/><text style="dominant-baseline: middle; font-size: 10.2px;" transform="translate(5,118.5)" y="0" x="0" id="text-entity-pets-c8ddf567-7858-5c2f-8d5c-09924015b056-attr-5-type" class="er entityLabel">Int</text><rect height="21" width="151.59375" y="108" x="54.113128662109375" class="er attributeBoxOdd"/><text style="dominant-baseline: middle; font-size: 10.2px;" transform="translate(59.113128662109375,118.5)" y="0" x="0" id="text-entity-pets-c8ddf567-7858-5c2f-8d5c-09924015b056-attr-5-name" class="er entityLabel">weightInGrams</text><rect height="21" width="23.79498291015625" y="108" x="205.70687866210938" class="er attributeBoxOdd"/><text style="dominant-baseline: middle; font-size: 10.2px;" transform="translate(210.70687866210938,118.5)" y="0" x="0" id="text-entity-pets-c8ddf567-7858-5c2f-8d5c-09924015b056-attr-5-key" class="er entityLabel"/><rect height="21" width="54.113128662109375" y="129" x="0" class="er attributeBoxEven"/><text style="dominant-baseline: middle; font-size: 10.2px;" transform="translate(5,139.5)" y="0" x="0" id="text-entity-pets-c8ddf567-7858-5c2f-8d5c-09924015b056-attr-6-type" class="er entityLabel">Int</text><rect height="21" width="151.59375" y="129" x="54.113128662109375" class="er attributeBoxEven"/><text style="dominant-baseline: middle; font-size: 10.2px;" transform="translate(59.113128662109375,139.5)" y="0" x="0" id="text-entity-pets-c8ddf567-7858-5c2f-8d5c-09924015b056-attr-6-name" class="er entityLabel">bipedHeightInCentimeters</text><rect height="21" width="23.79498291015625" y="129" x="205.70687866210938" class="er attributeBoxEven"/><text style="dominant-baseline: middle; font-size: 10.2px;" transform="translate(210.70687866210938,139.5)" y="0" x="0" id="text-entity-pets-c8ddf567-7858-5c2f-8d5c-09924015b056-attr-6-key" class="er entityLabel"/><rect height="21" width="54.113128662109375" y="150" x="0" class="er attributeBoxOdd"/><text style="dominant-baseline: middle; font-size: 10.2px;" transform="translate(5,160.5)" y="0" x="0" id="text-entity-pets-c8ddf567-7858-5c2f-8d5c-09924015b056-attr-7-type" class="er entityLabel">Int</text><rect height="21" width="151.59375" y="150" x="54.113128662109375" class="er attributeBoxOdd"/><text style="dominant-baseline: middle; font-size: 10.2px;" transform="translate(59.113128662109375,160.5)" y="0" x="0" id="text-entity-pets-c8ddf567-7858-5c2f-8d5c-09924015b056-attr-7-name" class="er entityLabel">quadrupedHeightInCentimeters</text><rect height="21" width="23.79498291015625" y="150" x="205.70687866210938" class="er attributeBoxOdd"/><text style="dominant-baseline: middle; font-size: 10.2px;" transform="translate(210.70687866210938,160.5)" y="0" x="0" id="text-entity-pets-c8ddf567-7858-5c2f-8d5c-09924015b056-attr-7-key" class="er entityLabel"/><rect height="21" width="54.113128662109375" y="171" x="0" class="er attributeBoxEven"/><text style="dominant-baseline: middle; font-size: 10.2px;" transform="translate(5,181.5)" y="0" x="0" id="text-entity-pets-c8ddf567-7858-5c2f-8d5c-09924015b056-attr-8-type" class="er entityLabel">String</text><rect height="21" width="151.59375" y="171" x="54.113128662109375" class="er attributeBoxEven"/><text style="dominant-baseline: middle; font-size: 10.2px;" transform="translate(59.113128662109375,181.5)" y="0" x="0" id="text-entity-pets-c8ddf567-7858-5c2f-8d5c-09924015b056-attr-8-name" class="er entityLabel">photoUrl</text><rect height="21" width="23.79498291015625" y="171" x="205.70687866210938" class="er attributeBoxEven"/><text style="dominant-baseline: middle; font-size: 10.2px;" transform="translate(210.70687866210938,181.5)" y="0" x="0" id="text-entity-pets-c8ddf567-7858-5c2f-8d5c-09924015b056-attr-8-key" class="er entityLabel"/></g><rect height="14" width="28.015625" y="244.3863525390625" x="77.77571868896484" class="er relationshipLabelBox"/><text style="text-anchor: middle; dominant-baseline: middle; font-size: 12px;" y="251.3863525390625" x="91.78353118896484" id="rel1" class="er relationshipLabel">Diary</text><rect height="14" width="28.015625" y="266.3799133300781" x="313.7225646972656" class="er relationshipLabelBox"/><text style="text-anchor: middle; dominant-baseline: middle; font-size: 12px;" y="273.3799133300781" x="327.7303771972656" id="rel2" class="er relationshipLabel">Diary</text></svg>